<svg width="160" height="160" viewBox="0 0 100 100" fill="none" xmlns="http://www.w3.org/2000/svg">
<rect width="100" height="100" fill="white"/>
<path fill-rule="evenodd" clip-rule="evenodd" d="M0 0H35V35H0V0ZM5 5V30H30V5H5Z" fill="black"/>
<path fill-rule="evenodd" clip-rule="evenodd" d="M10 10H25V25H10V10Z" fill="black"/>
<path fill-rule="evenodd" clip-rule="evenodd" d="M65 0H100V35H65V0ZM70 5V30H95V5H70Z" fill="black"/>
<path fill-rule="evenodd" clip-rule="evenodd" d="M75 10H90V25H75V10Z" fill="black"/>
<path fill-rule="evenodd" clip-rule="evenodd" d="M0 65H35V100H0V65ZM5 70V95H30V70H5Z" fill="black"/>
<path fill-rule="evenodd" clip-rule="evenodd" d="M10 75H25V90H10V75Z" fill="black"/>
<rect x="40" y="5" width="5" height="5" fill="black"/>
<rect x="50" y="5" width="5" height="5" fill="black"/>
<rect x="45" y="10" width="5" height="5" fill="black"/>
<rect x="55" y="10" width="5" height="5" fill="black"/>
<rect x="40" y="15" width="5" height="5" fill="black"/>
<rect x="50" y="20" width="5" height="5" fill="black"/>
<rect x="45" y="25" width="5" height="5" fill="black"/>
<rect x="40" y="30" width="5" height="5" fill="black"/>
<rect x="5" y="40" width="5" height="5" fill="black"/>
<rect x="15" y="45" width="5" height="5" fill="black"/>
<rect x="20" y="40" width="5" height="5" fill="black"/>
<rect x="30" y="45" width="5" height="5" fill="black"/>
<rect x="35" y="50" width="5" height="5" fill="black"/>
<rect x="45" y="50" width="5" height="5" fill="black"/>
<rect x="50" y="45" width="5" height="5" fill="black"/>
<rect x="55" y="55" width="5" height="5" fill="black"/>
<rect x="65" y="40" width="5" height="5" fill="black"/>
<rect x="75" y="45" width="5" height="5" fill="black"/>
<rect x="80" y="40" width="5" height="5" fill="black"/>
<rect x="90" y="45" width="5" height="5" fill="black"/>
<rect x="65" y="50" width="5" height="5" fill="black"/>
<rect x="70" y="55" width="5" height="5" fill="black"/>
<rect x="85" y="50" width="5" height="5" fill="black"/>
<rect x="95" y="55" width="5" height="5" fill="black"/>
<rect x="40" y="65" width="5" height="5" fill="black"/>
<rect x="50" y="65" width="5" height="5" fill="black"/>
<rect x="45" y="70" width="5" height="5" fill="black"/>
<rect x="55" y="70" width="5" height="5" fill="black"/>
<rect x="40" y="75" width="5" height="5" fill="black"/>
<rect x="50" y="80" width="5" height="5" fill="black"/>
<rect x="45" y="85" width="5" height="5" fill="black"/>
<rect x="40" y="90" width="5" height="5" fill="black"/>
<rect x="65" y="65" width="5" height="5" fill="black"/>
<rect x="75" y="65" width="5" height="5" fill="black"/>
<rect x="85" y="65" width="5" height="5" fill="black"/>
<rect x="70" y="70" width="5" height="5" fill="black"/>
<rect x="80" y="70" width="5" height="5" fill="black"/>
<rect x="90" y="70" width="5" height="5" fill="black"/>
<rect x="65" y="75" width="5" height="5" fill="black"/>
<rect x="75" y="80" width="5" height="5" fill="black"/>
<rect x="85" y="75" width="5" height="5" fill="black"/>
<rect x="65" y="85" width="5" height="5" fill="black"/>
<rect x="70" y="90" width="5" height="5" fill="black"/>
<rect x="80" y="90" width="5" height="5" fill="black"/>
<rect x="90" y="95" width="5" height="5" fill="black"/>
</svg>